<svg width="123" height="30" viewBox="0 0 123 30" fill="none" xmlns="http://www.w3.org/2000/svg">
<path d="M34.238 23H28.628V7.204H34.238C39.254 7.204 42.29 10.416 42.29 15.014C42.29 19.612 39.144 23 34.238 23ZM31.972 10.086V20.118H34.062C37.208 20.118 38.858 18.292 38.858 15.014C38.858 11.868 37.208 10.086 34.062 10.086H31.972ZM49.4524 23.198C45.9324 23.198 43.5784 20.756 43.5784 17.082C43.5784 13.584 46.0204 11.032 49.4084 11.032C53.1264 11.032 55.5904 14.046 55.0404 17.874H46.7024C46.9004 19.788 47.8244 20.844 49.3864 20.844C50.7284 20.844 51.6304 20.184 51.9824 19.018H55.0184C54.3584 21.68 52.3124 23.198 49.4524 23.198ZM49.3424 13.276C47.9124 13.276 47.0104 14.2 46.7464 15.938H51.8064C51.7184 14.31 50.7944 13.276 49.3424 13.276ZM69.4746 18.094C69.4746 21.108 67.0546 23.22 63.0946 23.22C59.1126 23.22 56.6266 21.086 56.3846 17.742H59.7726C59.8606 19.48 60.9826 20.602 63.0286 20.602C64.7226 20.602 65.9326 19.854 65.9326 18.578C65.9326 17.588 65.1626 16.994 63.8206 16.73L61.2246 16.224C58.8266 15.762 56.9786 14.464 56.9786 11.846C56.9786 9.03 59.4646 7.006 62.8746 7.006C66.4166 7.006 69.0126 9.074 69.2326 12.374H65.8446C65.7346 10.724 64.5906 9.602 62.9186 9.602C61.2906 9.602 60.3666 10.526 60.3666 11.626C60.3666 12.704 61.3566 13.166 62.5006 13.386L65.2066 13.936C67.9786 14.486 69.4746 15.762 69.4746 18.094ZM83.4025 17.126C83.4025 20.602 81.3565 23.22 78.1885 23.22C76.8025 23.22 75.6145 22.626 74.7345 21.482V27.246H71.6765V11.252H74.4925V12.968C75.3945 11.714 76.6925 11.032 78.1885 11.032C81.3565 11.032 83.4025 13.672 83.4025 17.126ZM80.2565 17.126C80.2565 14.926 79.0025 13.738 77.5065 13.738C76.0105 13.738 74.7565 14.904 74.7565 17.126C74.7565 19.348 76.0105 20.492 77.5065 20.492C79.0025 20.492 80.2565 19.37 80.2565 17.126ZM90.466 23.198C86.946 23.198 84.592 20.756 84.592 17.082C84.592 13.584 87.034 11.032 90.422 11.032C94.14 11.032 96.604 14.046 96.054 17.874H87.716C87.914 19.788 88.838 20.844 90.4 20.844C91.742 20.844 92.644 20.184 92.996 19.018H96.032C95.372 21.68 93.326 23.198 90.466 23.198ZM90.356 13.276C88.926 13.276 88.024 14.2 87.76 15.938H92.82C92.732 14.31 91.808 13.276 90.356 13.276ZM102.991 23.198C99.4714 23.198 97.1174 20.756 97.1174 17.082C97.1174 13.584 99.5594 11.032 102.947 11.032C106.665 11.032 109.129 14.046 108.579 17.874H100.241C100.439 19.788 101.363 20.844 102.925 20.844C104.267 20.844 105.169 20.184 105.521 19.018H108.557C107.897 21.68 105.851 23.198 102.991 23.198ZM102.881 13.276C101.451 13.276 100.549 14.2 100.285 15.938H105.345C105.257 14.31 104.333 13.276 102.881 13.276ZM109.643 17.126C109.643 13.65 111.689 11.032 114.857 11.032C116.265 11.032 117.453 11.648 118.333 12.77V7.204H121.369V23H118.575V21.306C117.651 22.538 116.375 23.22 114.857 23.22C111.689 23.22 109.643 20.558 109.643 17.126ZM112.789 17.126C112.789 19.326 114.043 20.492 115.539 20.492C117.057 20.492 118.311 19.304 118.311 17.082C118.311 14.86 117.035 13.738 115.539 13.738C114.043 13.738 112.789 14.882 112.789 17.126Z" fill="white"/>
<g clip-path="url(#clip0_237_3005)">
<g clip-path="url(#clip1_237_3005)">
<path d="M13.5216 2C5.96489 2 1.24292 10.179 5.02068 16.7222L7.25715 20.5945L7.94723 21.7904C9.45096 20.3606 11.4466 19.5632 13.5216 19.5632C15.5966 19.5632 17.5923 20.3606 19.096 21.7904L19.7861 20.5945L22.0214 16.7222C22.9347 15.1404 23.3514 13.4641 23.3514 11.8298C23.3517 6.70307 19.2505 2 13.5216 2ZM13.5216 16.7222C12.5638 16.7221 11.6276 16.4381 10.8313 15.9059C10.0349 15.3738 9.4143 14.6174 9.04783 13.7325C8.68136 12.8476 8.58552 11.8739 8.77243 10.9346C8.95935 9.99521 9.42061 9.13237 10.0979 8.45517C10.7752 7.77796 11.6381 7.3168 12.5775 7.13001C13.5169 6.94321 14.4905 7.03917 15.3754 7.40575C16.2602 7.77233 17.0165 8.39306 17.5486 9.18946C18.0806 9.98585 18.3646 10.9221 18.3645 11.8799C18.3644 13.1642 17.854 14.3959 16.9458 15.304C16.0376 16.2121 14.8059 16.7222 13.5216 16.7222Z" fill="url(#paint0_linear_237_3005)"/>
<path d="M13.3637 20.911C11.5085 20.911 9.83312 21.7121 8.64587 22.9975L9.33146 24.2276C10.2886 23.0248 11.7405 22.2591 13.3637 22.2591C14.6284 22.2604 15.8474 22.7318 16.7841 23.5816C17.1441 23.3118 17.5035 23.0418 17.8621 22.7715C16.6929 21.6206 15.1075 20.911 13.3637 20.911Z" fill="white"/>
<path d="M13.4129 23.6089C12.0126 23.6089 10.7852 24.3665 10.0933 25.5073L10.8938 26.9403C11.1965 25.7968 12.2104 24.9567 13.4141 24.9567C13.8308 24.9569 14.241 25.06 14.6082 25.2567L15.7448 24.4043C15.0768 23.8887 14.2568 23.609 13.4129 23.6089Z" fill="white"/>
<path fill-rule="evenodd" clip-rule="evenodd" d="M18.2051 22.827C18.2206 22.816 18.2362 22.8051 18.2525 22.7932C18.2552 22.797 18.2583 22.8004 18.2613 22.8036C18.2661 22.8088 18.2707 22.8137 18.2729 22.8199L18.1427 23.0041L17.4112 24.042L17.3053 24.192L16.6725 25.0873L15.914 26.1605C15.5806 26.6332 15.2466 27.1057 14.9122 27.5782C14.8983 27.5979 14.8841 27.6169 14.8695 27.6351C14.8696 27.6416 14.8696 27.6481 14.8696 27.6547C14.8693 27.9213 14.7898 28.1819 14.6414 28.4034C14.493 28.6249 14.2823 28.7975 14.0358 28.8992C13.7893 29.001 13.5182 29.0274 13.2568 28.9751C12.9953 28.9227 12.7552 28.7941 12.5669 28.6054C12.3785 28.4166 12.2503 28.1763 12.1986 27.9147C12.1468 27.6532 12.1737 27.3821 12.276 27.1358C12.3782 26.8896 12.5512 26.6792 12.773 26.5312C12.9948 26.3832 13.2555 26.3043 13.5221 26.3045C13.5313 26.3045 13.5404 26.3046 13.5495 26.3048C13.559 26.2972 13.5687 26.2897 13.5785 26.2823L14.9266 25.2751L16.0046 24.4695L17.0416 23.6945L18.065 22.93L18.1577 22.8607C18.1741 22.8489 18.1896 22.8379 18.2051 22.827Z" fill="url(#paint1_linear_237_3005)"/>
</g>
</g>
<defs>
<linearGradient id="paint0_linear_237_3005" x1="6.25101" y1="9.93679" x2="23.376" y2="15.8962" gradientUnits="userSpaceOnUse">
<stop stop-color="#DFA0BE"/>
<stop offset="1" stop-color="#7028E4"/>
</linearGradient>
<linearGradient id="paint1_linear_237_3005" x1="12.9672" y1="25.2829" x2="18.293" y2="27.1161" gradientUnits="userSpaceOnUse">
<stop stop-color="#DFA0BE"/>
<stop offset="1" stop-color="#7028E4"/>
</linearGradient>
<clipPath id="clip0_237_3005">
<rect width="27" height="27" fill="white" transform="translate(0 2)"/>
</clipPath>
<clipPath id="clip1_237_3005">
<rect width="19.6599" height="27.0021" fill="white" transform="translate(3.69141 2)"/>
</clipPath>
</defs>
</svg>
