<svg width="29" height="29" viewBox="0 0 29 29" fill="none" xmlns="http://www.w3.org/2000/svg">
<g clip-path="url(#clip0_251_3422)">
<path d="M14.523 0C6.40652 0 1.33476 8.78485 5.39236 15.8127L7.7945 19.9718L8.5357 21.2564C10.1508 19.7206 12.2943 18.8642 14.523 18.8642C16.7517 18.8642 18.8952 19.7206 20.5103 21.2564L21.2515 19.9718L23.6524 15.8127C24.6333 14.1138 25.0809 12.3133 25.0809 10.5579C25.0813 5.05145 20.6763 0 14.523 0ZM14.523 15.8127C13.4943 15.8127 12.4887 15.5076 11.6334 14.936C10.7781 14.3644 10.1114 13.552 9.71782 12.6016C9.3242 11.6511 9.22127 10.6053 9.42203 9.59639C9.62278 8.58745 10.1182 7.6607 10.8457 6.93332C11.5731 6.20595 12.4999 5.71064 13.5089 5.51001C14.5179 5.30938 15.5637 5.41244 16.5141 5.80618C17.4645 6.19991 18.2768 6.86662 18.8482 7.72201C19.4197 8.57739 19.7247 9.58303 19.7246 10.6118C19.7245 11.9912 19.1764 13.3141 18.2009 14.2894C17.2254 15.2648 15.9024 15.8127 14.523 15.8127Z" fill="white"/>
<path d="M14.3536 20.3119C12.361 20.3119 10.5615 21.1723 9.28635 22.5529L10.0227 23.8742C11.0507 22.5822 12.6102 21.7598 14.3536 21.7598C15.712 21.7613 17.0213 22.2676 18.0274 23.1803C18.4141 22.8905 18.8 22.6005 19.1853 22.3102C17.9294 21.074 16.2266 20.3119 14.3536 20.3119Z" fill="white"/>
<path d="M14.4064 23.2096C12.9025 23.2096 11.5841 24.0233 10.8409 25.2485L11.7007 26.7877C12.0259 25.5595 13.1148 24.6572 14.4077 24.6572C14.8553 24.6574 15.2958 24.7681 15.6903 24.9795L16.9111 24.0639C16.1936 23.5101 15.3128 23.2096 14.4064 23.2096Z" fill="white"/>
<path fill-rule="evenodd" clip-rule="evenodd" d="M19.5539 22.3696C19.5706 22.3579 19.5873 22.3461 19.6048 22.3334C19.6077 22.3375 19.611 22.3411 19.6143 22.3445C19.6195 22.3501 19.6244 22.3553 19.6268 22.3621L19.4869 22.5599L18.7012 23.6746L18.5875 23.8358L17.9078 24.7974L17.0931 25.9501C16.735 26.4578 16.3763 26.9653 16.0171 27.4728C16.0022 27.494 15.9869 27.5144 15.9712 27.5339C15.9713 27.5409 15.9713 27.548 15.9713 27.555C15.9709 27.8414 15.8856 28.1212 15.7262 28.3592C15.5668 28.5971 15.3405 28.7824 15.0757 28.8917C14.811 29.001 14.5198 29.0293 14.239 28.9732C13.9582 28.917 13.7003 28.7788 13.498 28.5761C13.2957 28.3734 13.158 28.1152 13.1024 27.8343C13.0468 27.5533 13.0757 27.2622 13.1855 26.9977C13.2954 26.7332 13.4811 26.5072 13.7194 26.3483C13.9576 26.1893 14.2376 26.1046 14.524 26.1048C14.5338 26.1048 14.5436 26.1049 14.5534 26.1051C14.5636 26.097 14.574 26.0889 14.5846 26.081L16.0326 24.9991L17.1905 24.1339L18.3042 23.3014L19.4034 22.4803L19.503 22.4059C19.5206 22.3932 19.5372 22.3814 19.5539 22.3696Z" fill="white"/>
</g>
<defs>
<clipPath id="clip0_251_3422">
<rect width="29" height="29" fill="white"/>
</clipPath>
</defs>
</svg>
