<svg width="16" height="18" viewBox="0 0 16 18" fill="none" xmlns="http://www.w3.org/2000/svg">
<g clip-path="url(#clip0_214_497)">
<path d="M6.10285 0.274902C8.81853 0.274902 11.5339 0.274902 14.2496 0.274902C14.3852 0.311711 14.5236 0.340341 14.6558 0.386352C15.4752 0.670259 15.9946 1.41735 15.9956 2.32258C15.998 4.78128 15.9966 7.23965 15.9963 9.69835C15.9963 10.2832 16.0075 10.8684 15.9908 11.4529C15.9612 12.4931 15.0931 13.3551 14.0536 13.3588C11.4698 13.368 8.88602 13.3687 6.30223 13.3585C5.25522 13.3544 4.37044 12.4604 4.36805 11.4117C4.36055 8.35108 4.36089 5.29081 4.36907 2.23021C4.37078 1.59832 4.65196 1.08504 5.14786 0.689686C5.43006 0.464401 5.7627 0.362494 6.10285 0.274902Z" fill="#F8F8FA"/>
<path d="M1.73992 17.7251C1.39774 17.6402 1.06577 17.5335 0.784253 17.3086C0.283582 16.9088 0.00581003 16.39 0.00478756 15.7503C-0.00134728 12.462 -0.00134728 9.17377 0.00342426 5.8855C0.00512838 4.82076 0.868437 3.94553 1.93351 3.91724C2.37454 3.90565 2.81591 3.91519 3.27363 3.91519C3.27363 3.99835 3.27363 4.06516 3.27363 4.13196C3.27363 6.52863 3.27227 8.92531 3.27432 11.322C3.27568 12.8601 4.30429 14.1089 5.81448 14.4003C6.02443 14.4409 6.24324 14.4508 6.45796 14.4511C8.59356 14.4548 10.7292 14.4531 12.8648 14.4531H13.0904C13.0904 14.642 13.0962 14.8216 13.0894 15.0005C13.074 15.3965 13.1074 15.8045 13.0216 16.1852C12.8338 17.0161 12.2769 17.509 11.4459 17.6927C11.4139 17.6998 11.3835 17.7141 11.3525 17.7251H1.73992Z" fill="#F8F8FA"/>
</g>
<defs>
<clipPath id="clip0_214_497">
<rect width="16" height="17.4502" fill="white" transform="translate(0 0.274902)"/>
</clipPath>
</defs>
</svg>
